<svg xmlns="http://www.w3.org/2000/svg" xmlns:xlink="http://www.w3.org/1999/xlink" aria-hidden="true" width="0.73em"
     height="1em" style="-ms-transform: rotate(360deg); -webkit-transform: rotate(360deg); transform: rotate(360deg);"
     preserveAspectRatio="xMidYMid meet" viewBox="0 0 1024 1408">
  <path
    d="M603 1408H431q-13 0-22.5-9t-9.5-23v-330H111q-13 0-22.5-9t-9.5-23V911q0-13 9.5-22.5T111 879h288v-85H111q-13 0-22.5-9T79 762V658q0-13 9.5-22.5T111 626h214L4 48q-8-16 0-32Q14 0 32 0h194q19 0 29 18l215 425q19 38 56 125 10-24 30.5-68t27.5-61L775 19q8-19 29-19h191q17 0 27 16 9 14 1 31L710 626h215q13 0 22.5 9.5T957 658v104q0 14-9.5 23t-22.5 9H635v85h290q13 0 22.5 9.5T957 911v103q0 14-9.5 23t-22.5 9H635v330q0 13-9.5 22.5T603 1408z"
    fill="#626262"/>
</svg>
